<?xml version="1.0" encoding="UTF-8" standalone="no"?>
<svg
   xmlns:dc="http://purl.org/dc/elements/1.1/"
   xmlns:cc="http://creativecommons.org/ns#"
   xmlns:rdf="http://www.w3.org/1999/02/22-rdf-syntax-ns#"
   xmlns:svg="http://www.w3.org/2000/svg"
   xmlns="http://www.w3.org/2000/svg"
   xmlns:sodipodi="http://sodipodi.sourceforge.net/DTD/sodipodi-0.dtd"
   xmlns:inkscape="http://www.inkscape.org/namespaces/inkscape"
   width="256"
   height="256"
   viewBox="0 0 67.733333 67.733334"
   version="1.1"
   id="svg8"
   inkscape:version="1.0.1 (3bc2e813f5, 2020-09-07)"
   sodipodi:docname="appicon.svg"
   inkscape:export-filename="D:\Projects\GitHub\FileRenamer\res\images\appicon16.png"
   inkscape:export-xdpi="6.0000005"
   inkscape:export-ydpi="6.0000005">
  <defs
     id="defs2" />
  <sodipodi:namedview
     id="base"
     pagecolor="#ffffff"
     bordercolor="#666666"
     borderopacity="1.0"
     inkscape:pageopacity="0.0"
     inkscape:pageshadow="2"
     inkscape:zoom="1.979899"
     inkscape:cx="47.639639"
     inkscape:cy="110.85539"
     inkscape:document-units="px"
     inkscape:current-layer="layer1"
     inkscape:document-rotation="0"
     showgrid="false"
     units="px"
     inkscape:window-width="1920"
     inkscape:window-height="1009"
     inkscape:window-x="-8"
     inkscape:window-y="-8"
     inkscape:window-maximized="1"
     fit-margin-top="0"
     fit-margin-left="0"
     fit-margin-right="0"
     fit-margin-bottom="0" />
  <metadata
     id="metadata5">
    <rdf:RDF>
      <cc:Work
         rdf:about="">
        <dc:format>image/svg+xml</dc:format>
        <dc:type
           rdf:resource="http://purl.org/dc/dcmitype/StillImage" />
        <dc:title />
      </cc:Work>
    </rdf:RDF>
  </metadata>
  <g
     inkscape:label="レイヤー 1"
     inkscape:groupmode="layer"
     id="layer1"
     transform="translate(-0.52916655,-0.56567978)">
    <path
       style="opacity:0.997;fill:#ebebeb;fill-opacity:1;stroke-width:0.14414"
       d="M 5.5693843,66.307748 C 0.61029845,65.706103 1.7138931,49.700848 1.6889008,34.432346 1.6639086,19.163845 0.37033387,4.7720975 5.5693843,2.5569455 17.367443,1.486539 57.70257,2.2797685 57.70257,2.2797685 L 58.177548,66.03057 c 0,0 -45.769898,1.480464 -52.6081637,0.277195 z"
       id="path1990"
       sodipodi:nodetypes="csccccc" />
    <path
       style="opacity:0.997;fill:#72cede;fill-opacity:1;stroke-width:0.178655"
       d="m 48.778404,2.2797685 c 0,0 15.887464,-1.56760863 17.153375,4.439494 1.41718,4.7826005 2.112661,50.7777545 -0.444241,57.3788715 -2.016545,3.765668 -16.709134,1.932436 -16.709134,1.932436 z"
       id="path845"
       sodipodi:nodetypes="ccccc" />
    <path
       id="rect833"
       style="opacity:0.997;fill:#3c3c3c;fill-opacity:1;stroke-width:1.22303"
       d="m 7.7868031,1.3240634 c -3.6853505,0 -6.6522575,2.4724235 -6.6522575,5.543548 V 61.997081 c 0,3.071126 2.966907,5.543549 6.6522575,5.543549 H 61.004864 c 3.68535,0 6.652257,-2.472423 6.652257,-5.543549 V 6.8676114 c 0,-3.0711245 -2.966907,-5.543548 -6.652257,-5.543548 z m 0,2.2174189 H 61.004864 c 2.456897,0 4.434837,1.977938 4.434837,4.4348385 V 60.888373 c 0,2.456893 -1.97794,4.434837 -4.434837,4.434837 H 7.7868031 c -2.4569005,0 -4.4348385,-1.977944 -4.4348385,-4.434837 V 7.9763208 c 0,-2.4569005 1.977938,-4.4348385 4.4348385,-4.4348385 z"
       sodipodi:nodetypes="ssssssssssssssssss" />
    <path
       id="rect2607"
       style="opacity:0.997;fill:#3c3c3c;fill-opacity:1;stroke-width:1.03074"
       d="M 33.058987,66.208721 67.58708,32.574891 67.423834,44.688555 45.537702,66.199282 Z"
       sodipodi:nodetypes="ccccc" />
    <text
       xml:space="preserve"
       style="font-style:normal;font-weight:normal;font-size:44.3482px;line-height:1.25;font-family:sans-serif;fill:#000000;fill-opacity:1;stroke:none;stroke-width:1.10871"
       x="32.3764"
       y="32.313919"
       id="text2612"><tspan
         sodipodi:role="line"
         id="tspan2610"
         x="32.3764"
         y="32.313919"
         style="stroke-width:1.10871" /></text>
    <text
       xml:space="preserve"
       style="font-style:normal;font-weight:normal;font-size:44.3482px;line-height:1.25;font-family:sans-serif;fill:#000000;fill-opacity:1;stroke:none;stroke-width:1.10871"
       x="17.329626"
       y="56.170975"
       id="text2635"><tspan
         sodipodi:role="line"
         id="tspan2633"
         x="17.329626"
         y="56.170975"
         style="stroke-width:1.10871" /></text>
  </g>
</svg>
