<?xml version="1.0" encoding="UTF-8" standalone="no"?>
<svg
   xmlns:dc="http://purl.org/dc/elements/1.1/"
   xmlns:cc="http://creativecommons.org/ns#"
   xmlns:rdf="http://www.w3.org/1999/02/22-rdf-syntax-ns#"
   xmlns:svg="http://www.w3.org/2000/svg"
   xmlns="http://www.w3.org/2000/svg"
   xmlns:sodipodi="http://sodipodi.sourceforge.net/DTD/sodipodi-0.dtd"
   xmlns:inkscape="http://www.inkscape.org/namespaces/inkscape"
   width="64"
   height="64"
   viewBox="0 0 16.933333 16.933334"
   version="1.1"
   id="svg8"
   inkscape:version="1.0.1 (3bc2e813f5, 2020-09-07)"
   sodipodi:docname="clear.svg">
  <defs
     id="defs2" />
  <sodipodi:namedview
     id="base"
     pagecolor="#ffffff"
     bordercolor="#666666"
     borderopacity="1.0"
     inkscape:pageopacity="0.0"
     inkscape:pageshadow="2"
     inkscape:zoom="11.2"
     inkscape:cx="38.518596"
     inkscape:cy="28.929056"
     inkscape:document-units="px"
     inkscape:current-layer="layer1"
     inkscape:document-rotation="0"
     showgrid="false"
     units="px"
     inkscape:window-width="1920"
     inkscape:window-height="1009"
     inkscape:window-x="-8"
     inkscape:window-y="-8"
     inkscape:window-maximized="1" />
  <metadata
     id="metadata5">
    <rdf:RDF>
      <cc:Work
         rdf:about="">
        <dc:format>image/svg+xml</dc:format>
        <dc:type
           rdf:resource="http://purl.org/dc/dcmitype/StillImage" />
        <dc:title></dc:title>
      </cc:Work>
    </rdf:RDF>
  </metadata>
  <g
     inkscape:label="レイヤー 1"
     inkscape:groupmode="layer"
     id="layer1">
    <path
       style="opacity:0.997;fill:#c80000;fill-opacity:1;stroke-width:0.0597381"
       d="M 1.3965186,10.111011 V 6.8223228 H 15.536815 v 3.2886882 z"
       id="path849"
       sodipodi:nodetypes="ccccc" />
    <path
       id="rect842"
       style="opacity:0.997;fill:#380000;fill-opacity:1;stroke-width:0.496513"
       d="m 1.5730309,6.5874166 c -0.2602761,0 -0.4698126,0.2095365 -0.4698126,0.4698127 v 2.8188761 c 0,0.2602756 0.2095365,0.4698116 0.4698126,0.4698116 H 15.360303 c 0.260276,0 0.469812,-0.209536 0.469812,-0.4698116 V 7.0572293 c 0,-0.2602762 -0.209536,-0.4698127 -0.469812,-0.4698127 z M 1.8079373,7.0572293 H 15.125396 c 0.130139,0 0.234907,0.1047646 0.234907,0.234907 v 2.349062 c 0,0.1301384 -0.104764,0.2349071 -0.234907,0.2349071 H 1.8079373 c -0.1301389,0 -0.2349064,-0.104765 -0.2349064,-0.2349071 v -2.349062 c 0,-0.1301389 0.1047681,-0.234907 0.2349064,-0.234907 z"
       sodipodi:nodetypes="ssssssssssssssssss" />
  </g>
</svg>
