<?xml version="1.0" encoding="UTF-8" standalone="no"?>
<!-- Created with Inkscape (http://www.inkscape.org/) -->

<svg
   width="48"
   height="48"
   viewBox="0 0 12.7 12.7"
   version="1.1"
   id="svg5"
   inkscape:version="1.1.1 (3bf5ae0d25, 2021-09-20)"
   sodipodi:docname="exec_double.svg"
   xmlns:inkscape="http://www.inkscape.org/namespaces/inkscape"
   xmlns:sodipodi="http://sodipodi.sourceforge.net/DTD/sodipodi-0.dtd"
   xmlns="http://www.w3.org/2000/svg"
   xmlns:svg="http://www.w3.org/2000/svg">
  <sodipodi:namedview
     id="namedview7"
     pagecolor="#ffffff"
     bordercolor="#666666"
     borderopacity="1.0"
     inkscape:pageshadow="2"
     inkscape:pageopacity="0"
     inkscape:pagecheckerboard="true"
     inkscape:document-units="px"
     showgrid="false"
     units="px"
     inkscape:zoom="7.2176494"
     inkscape:cx="-2.2167882"
     inkscape:cy="38.58597"
     inkscape:window-width="1920"
     inkscape:window-height="1007"
     inkscape:window-x="-8"
     inkscape:window-y="-8"
     inkscape:window-maximized="1"
     inkscape:current-layer="layer1" />
  <defs
     id="defs2" />
  <g
     inkscape:label="Layer 1"
     inkscape:groupmode="layer"
     id="layer1">
    <path
       id="path1048"
       style="fill:#9f481a;fill-opacity:1;stroke:none;stroke-width:0.295525;stroke-linecap:square;stroke-miterlimit:4;stroke-dasharray:none;stroke-opacity:1;paint-order:stroke fill markers"
       d="m 3.6358134,1.2239635 c -0.2754788,0 -0.5510597,0.046502 -0.5670968,0.1391046 -0.00482,0.027847 -0.00883,0.1927302 -0.012121,0.451946 A 2.8823192,2.8823192 0 0 0 2.4459206,2.01357 C 2.2907272,1.8057699 2.1902917,1.6745376 2.1700201,1.6548417 2.0352109,1.5238603 1.1696523,2.1528182 1.2525646,2.3215049 c 0.012457,0.025342 0.1059295,0.1608663 0.25541,0.3722923 A 2.8823192,2.8823192 0 0 0 1.1301987,3.2138524 C 0.88292374,3.1369922 0.72525717,3.0900193 0.69730045,3.086003 0.51124863,3.0592758 0.18071254,4.076761 0.34694154,4.1644967 c 0.025005,0.013198 0.18085006,0.068145 0.42654907,0.1515144 A 2.8823192,2.8823192 0 0 0 0.75357688,4.636933 2.8823192,2.8823192 0 0 0 0.77349061,4.9578547 C 0.5277916,5.0412234 0.37194685,5.0961714 0.34694154,5.1093692 0.18071254,5.1971046 0.51124863,6.2145901 0.69730045,6.1878628 0.72525683,6.183845 0.88292019,6.1368748 1.1301987,6.0600135 A 2.8823192,2.8823192 0 0 0 1.5079746,6.5800684 C 1.3584938,6.7914947 1.265021,6.9270178 1.2525646,6.9523606 1.1696523,7.1210478 2.0352109,7.7500057 2.1700201,7.619024 2.1902914,7.599326 2.2907272,7.4680956 2.4459206,7.2602961 a 2.8823192,2.8823192 0 0 0 0.6106749,0.1985557 c 0.00329,0.2592158 0.0073,0.4240982 0.012121,0.4519456 0.032074,0.1852049 1.1021192,0.1852049 1.1341933,0 0.00482,-0.027846 0.00883,-0.1927298 0.012121,-0.4519456 A 2.8823192,2.8823192 0 0 0 4.8257065,7.2602961 C 4.9808999,7.4680956 5.0813354,7.5993282 5.101607,7.619024 5.2364163,7.7500057 6.101975,7.1210478 6.0190627,6.9523606 6.0066045,6.9270194 5.9131338,6.7914947 5.7636528,6.5800684 a 2.8823192,2.8823192 0 0 0 0.377776,-0.5200549 c 0.2472783,0.076861 0.404942,0.1238333 0.432898,0.1278493 0.1860519,0.026727 0.516588,-0.990758 0.3503587,-1.0784936 C 6.8996829,5.0961714 6.7438357,5.0412231 6.4981371,4.9578547 A 2.8823192,2.8823192 0 0 0 6.51805,4.636933 2.8823192,2.8823192 0 0 0 6.4998677,4.3154339 C 6.7448037,4.2323173 6.8997248,4.1776708 6.9246849,4.1644967 7.0909142,4.076761 6.7603782,3.0592758 6.5743263,3.086003 6.5463945,3.0900179 6.3891865,3.1368264 6.1422942,3.2135639 A 2.8823192,2.8823192 0 0 0 5.7639409,2.6932202 C 5.9132579,2.4820216 6.0066135,2.3468319 6.0190622,2.3215049 6.1019745,2.1528182 5.2364159,1.5238603 5.1016065,1.6548417 5.0813684,1.6745052 4.9813291,1.8049217 4.826572,2.012127 A 2.8823192,2.8823192 0 0 0 4.2150311,1.813571 C 4.2117365,1.5549904 4.2077301,1.3908764 4.2029098,1.3630681 4.1868727,1.2704656 3.9112918,1.2239635 3.6358134,1.2239635 Z m 0,1.7558351 A 1.6572541,1.6572541 0 0 1 5.2929476,4.636933 1.6572541,1.6572541 0 0 1 3.6358134,6.2940672 1.6572541,1.6572541 0 0 1 1.9786791,4.636933 1.6572541,1.6572541 0 0 1 3.6358134,2.9797986 Z" />
    <path
       id="path891"
       style="fill:#d46022;fill-opacity:1;stroke:none;stroke-width:0.435641;stroke-linecap:square;stroke-miterlimit:4;stroke-dasharray:none;stroke-opacity:1;paint-order:stroke fill markers"
       d="m 7.6962982,2.5066231 c -0.4060906,0 -0.8123318,0.06855 -0.8359725,0.2050577 -0.00711,0.04105 -0.013013,0.2841085 -0.017869,0.6662255 A 4.248904,4.248904 0 0 0 5.9422454,3.6706028 C 5.7134706,3.3642792 5.5654159,3.170826 5.5355331,3.1417918 5.3368072,2.9487085 4.0608641,3.8758724 4.1830874,4.1245379 4.2014501,4.1618957 4.339241,4.3616752 4.559594,4.673344 A 4.248904,4.248904 0 0 0 4.0027045,5.4399712 C 3.63819,5.3266696 3.4057695,5.2574255 3.3645577,5.2515051 3.0902937,5.2121057 2.6030416,6.7120079 2.8480842,6.8413415 c 0.036861,0.019456 0.266596,0.1004553 0.6287874,0.2233514 a 4.248904,4.248904 0 0 0 -0.029356,0.4730795 4.248904,4.248904 0 0 0 0.029356,0.4730794 C 3.1146802,8.1337476 2.8849452,8.214748 2.8480842,8.2342032 2.6030416,8.3635364 3.0902937,9.8634395 3.3645577,9.8240396 3.4057693,9.8181222 3.6381848,9.7488806 4.0027045,9.6355734 A 4.248904,4.248904 0 0 0 4.559594,10.4022 c -0.2203535,0.31167 -0.3581443,0.511447 -0.3765066,0.548806 -0.1222233,0.248667 1.1537198,1.17583 1.3524457,0.982747 0.029883,-0.02904 0.1779375,-0.222488 0.4067123,-0.52881 a 4.248904,4.248904 0 0 0 0.9002122,0.292696 c 0.00486,0.382116 0.010763,0.625174 0.017869,0.666225 0.047282,0.273014 1.6246634,0.273014 1.6719447,0 0.00711,-0.04106 0.013013,-0.284109 0.017869,-0.666225 a 4.248904,4.248904 0 0 0 0.9002122,-0.292696 c 0.2287746,0.306322 0.376829,0.499776 0.4067124,0.52881 0.1987261,0.193083 1.4746701,-0.73408 1.3524471,-0.982747 -0.01836,-0.03735 -0.156153,-0.237136 -0.376507,-0.548806 a 4.248904,4.248904 0 0 0 0.55689,-0.7666266 c 0.364518,0.1133038 0.596935,0.1825462 0.638146,0.1884662 0.274264,0.039402 0.761516,-1.4605028 0.516472,-1.5898364 -0.03686,-0.019456 -0.266595,-0.1004563 -0.628785,-0.2233514 a 4.248904,4.248904 0 0 0 0.02935,-0.4730794 4.248904,4.248904 0 0 0 -0.0268,-0.4739304 C 12.279349,6.9413176 12.507723,6.8607618 12.544517,6.8413415 12.78956,6.7120079 12.302308,5.2121057 12.028043,5.2515051 c -0.04117,0.00592 -0.272919,0.07492 -0.636869,0.1880408 A 4.248904,4.248904 0 0 0 10.833428,4.6724933 C 11.05354,4.3611599 11.191158,4.1618732 11.20951,4.1245379 11.331732,3.8758724 10.055789,2.9487085 9.8570634,3.1417918 9.8272296,3.1707784 9.6797591,3.3630287 9.4516274,3.6684757 A 4.248904,4.248904 0 0 0 8.5501385,3.375779 C 8.5452819,2.9945983 8.5393759,2.7526736 8.5322702,2.7116808 8.5086294,2.5751729 8.1023883,2.5066231 7.6962982,2.5066231 Z m 0,2.5883233 a 2.4430026,2.4430026 0 0 1 2.4428258,2.442826 2.4430026,2.4430026 0 0 1 -2.4428258,2.442826 2.4430026,2.4430026 0 0 1 -2.4428259,-2.442826 2.4430026,2.4430026 0 0 1 2.4428259,-2.442826 z" />
  </g>
</svg>
