<?xml version="1.0" encoding="UTF-8" standalone="no"?>
<!-- Created with Inkscape (http://www.inkscape.org/) -->

<svg
   width="48"
   height="48"
   viewBox="0 0 12.7 12.7"
   version="1.1"
   id="svg5"
   inkscape:version="1.1.1 (3bf5ae0d25, 2021-09-20)"
   sodipodi:docname="exec.svg"
   xmlns:inkscape="http://www.inkscape.org/namespaces/inkscape"
   xmlns:sodipodi="http://sodipodi.sourceforge.net/DTD/sodipodi-0.dtd"
   xmlns="http://www.w3.org/2000/svg"
   xmlns:svg="http://www.w3.org/2000/svg">
  <sodipodi:namedview
     id="namedview7"
     pagecolor="#ffffff"
     bordercolor="#666666"
     borderopacity="1.0"
     inkscape:pageshadow="2"
     inkscape:pageopacity="0"
     inkscape:pagecheckerboard="true"
     inkscape:document-units="px"
     showgrid="false"
     units="px"
     inkscape:zoom="7.2176494"
     inkscape:cx="-2.2860628"
     inkscape:cy="38.58597"
     inkscape:window-width="1920"
     inkscape:window-height="1007"
     inkscape:window-x="-8"
     inkscape:window-y="-8"
     inkscape:window-maximized="1"
     inkscape:current-layer="layer1" />
  <defs
     id="defs2" />
  <g
     inkscape:label="Layer 1"
     inkscape:groupmode="layer"
     id="layer1">
    <path
       id="path1048"
       style="fill:#d46022;fill-opacity:1;stroke:none;stroke-width:0.549856;stroke-linecap:square;stroke-miterlimit:4;stroke-dasharray:none;stroke-opacity:1;paint-order:stroke fill markers"
       d="m 6.3499997,1.8e-7 c -0.5125572,2e-8 -1.0253041,0.086522 -1.0551428,0.25881871 -0.00897,0.0518134 -0.016417,0.3585943 -0.022553,0.84089241 A 5.3628569,5.3628569 0 0 0 4.1360796,1.4691454 C 3.847326,1.0825116 3.6604551,0.83834007 3.6227378,0.80169387 3.371911,0.55798923 1.7614486,1.7282313 1.9157157,2.0420906 1.9388921,2.0892436 2.112808,2.3413992 2.3909326,2.7347795 A 5.3628569,5.3628569 0 0 0 1.6880411,3.7023966 C 1.2279602,3.5593902 0.934605,3.471992 0.8825887,3.4645195 0.53641965,3.4147905 -0.07857737,5.3079285 0.23070919,5.4711699 0.27723417,5.4957259 0.56719957,5.5979627 1.0243483,5.7530783 A 5.3628569,5.3628569 0 0 0 0.9872975,6.3501871 5.3628569,5.3628569 0 0 0 1.0243483,6.9472958 C 0.56719957,7.1024114 0.27723417,7.2046482 0.23070919,7.2292042 -0.07857737,7.3924456 0.53641965,9.2855836 0.8825887,9.2358547 0.9346038,9.2283824 1.2279535,9.1409862 1.6880411,8.9979775 A 5.3628569,5.3628569 0 0 0 2.3909326,9.9655941 C 2.112808,10.358975 1.9388921,10.61113 1.9157157,10.658283 1.7614486,10.972143 3.371911,12.142385 3.6227378,11.89868 3.6604548,11.86203 3.847326,11.617862 4.1360796,11.231229 a 5.3628569,5.3628569 0 0 0 1.1362247,0.369434 c 0.00614,0.482298 0.01358,0.789079 0.022553,0.840892 0.059677,0.344593 2.0506084,0.344593 2.1102855,0 0.00897,-0.05181 0.016417,-0.358594 0.022553,-0.840892 a 5.3628569,5.3628569 0 0 0 1.1362248,-0.369434 c 0.2887536,0.386633 0.4756245,0.630805 0.5133418,0.667451 0.2508268,0.243705 1.8612896,-0.926537 1.7070226,-1.240397 -0.02318,-0.04715 -0.197092,-0.299308 -0.475217,-0.6926889 A 5.3628569,5.3628569 0 0 0 11.01196,8.9979775 c 0.460087,0.1430087 0.753437,0.2304049 0.805452,0.2378772 0.346169,0.049729 0.961166,-1.8434091 0.651879,-2.0066505 -0.04652,-0.024556 -0.33649,-0.1267928 -0.793638,-0.2819084 a 5.3628569,5.3628569 0 0 0 0.03705,-0.5971087 5.3628569,5.3628569 0 0 0 -0.03383,-0.5981826 C 12.134602,5.5973571 12.422849,5.4956819 12.46929,5.4711699 12.778577,5.3079285 12.16358,3.4147905 11.817411,3.4645195 c -0.05197,0.00747 -0.344472,0.094562 -0.803841,0.2373402 A 5.3628569,5.3628569 0 0 0 10.309604,2.7337057 C 10.587424,2.3407488 10.761122,2.0892141 10.784284,2.0420906 10.938551,1.7282313 9.3280884,0.55798923 9.0772616,0.80169387 9.0396064,0.83827987 8.8534729,1.0809334 8.5655309,1.4664606 A 5.3628569,5.3628569 0 0 0 7.427695,1.0970264 C 7.4215642,0.61591021 7.4141026,0.3105589 7.4051424,0.25881889 7.3753037,0.08652219 6.8625568,1.7e-7 6.3499997,1.8e-7 Z m 0,3.26691492 A 3.0834949,3.0834949 0 0 1 9.4332716,6.3501871 3.0834949,3.0834949 0 0 1 6.3499997,9.433459 3.0834949,3.0834949 0 0 1 3.2667278,6.3501871 3.0834949,3.0834949 0 0 1 6.3499997,3.2669151 Z" />
  </g>
</svg>
