<?xml version="1.0" encoding="UTF-8" standalone="no"?>
<svg
   xmlns:dc="http://purl.org/dc/elements/1.1/"
   xmlns:cc="http://creativecommons.org/ns#"
   xmlns:rdf="http://www.w3.org/1999/02/22-rdf-syntax-ns#"
   xmlns:svg="http://www.w3.org/2000/svg"
   xmlns="http://www.w3.org/2000/svg"
   xmlns:sodipodi="http://sodipodi.sourceforge.net/DTD/sodipodi-0.dtd"
   xmlns:inkscape="http://www.inkscape.org/namespaces/inkscape"
   width="64"
   height="64"
   viewBox="0 0 16.933333 16.933334"
   version="1.1"
   id="svg8"
   inkscape:version="1.0.1 (3bc2e813f5, 2020-09-07)"
   sodipodi:docname="failure.svg">
  <defs
     id="defs2" />
  <sodipodi:namedview
     id="base"
     pagecolor="#ffffff"
     bordercolor="#666666"
     borderopacity="1.0"
     inkscape:pageopacity="0"
     inkscape:pageshadow="2"
     inkscape:zoom="7.9195959"
     inkscape:cx="64.10547"
     inkscape:cy="43.185414"
     inkscape:document-units="px"
     inkscape:current-layer="layer1"
     inkscape:document-rotation="0"
     showgrid="false"
     units="px"
     inkscape:window-width="1920"
     inkscape:window-height="1009"
     inkscape:window-x="-8"
     inkscape:window-y="-8"
     inkscape:window-maximized="1" />
  <metadata
     id="metadata5">
    <rdf:RDF>
      <cc:Work
         rdf:about="">
        <dc:format>image/svg+xml</dc:format>
        <dc:type
           rdf:resource="http://purl.org/dc/dcmitype/StillImage" />
        <dc:title></dc:title>
      </cc:Work>
    </rdf:RDF>
  </metadata>
  <g
     inkscape:label="レイヤー 1"
     inkscape:groupmode="layer"
     id="layer1">
    <circle
       style="opacity:0.997;fill:#ffffff;stroke-width:0.32953;fill-opacity:1"
       id="circle835"
       cx="8.4666672"
       cy="8.4666672"
       r="8.2020836" />
    <circle
       style="opacity:0.997;fill:#d31e1e;stroke-width:0.29764;fill-opacity:1"
       id="path833"
       cx="8.4666672"
       cy="8.4666672"
       r="7.4083333" />
    <path
       id="rect846"
       style="opacity:0.997;fill:#ffffff;fill-opacity:1;stroke-width:3.58572"
       d="M 18.417969 14.175781 C 18.16235 14.175781 17.906806 14.272881 17.710938 14.46875 L 14.46875 17.710938 C 14.077013 18.102675 14.077013 18.733263 14.46875 19.125 L 27.34375 32 L 14.46875 44.875 C 14.077013 45.266737 14.077013 45.897326 14.46875 46.289062 L 17.710938 49.53125 C 18.102674 49.922987 18.733263 49.922987 19.125 49.53125 L 32 36.65625 L 44.875 49.53125 C 45.266739 49.922989 45.897325 49.922987 46.289062 49.53125 L 49.53125 46.289062 C 49.922987 45.897325 49.922989 45.266739 49.53125 44.875 L 36.65625 32 L 49.53125 19.125 C 49.922987 18.733263 49.922987 18.102674 49.53125 17.710938 L 46.289062 14.46875 C 45.897326 14.077013 45.266737 14.077013 44.875 14.46875 L 32 27.34375 L 19.125 14.46875 C 18.929131 14.272881 18.673588 14.175781 18.417969 14.175781 z "
       transform="scale(0.26458334)" />
  </g>
</svg>
