<?xml version="1.0" encoding="UTF-8" standalone="no"?>
<svg
   xmlns:dc="http://purl.org/dc/elements/1.1/"
   xmlns:cc="http://creativecommons.org/ns#"
   xmlns:rdf="http://www.w3.org/1999/02/22-rdf-syntax-ns#"
   xmlns:svg="http://www.w3.org/2000/svg"
   xmlns="http://www.w3.org/2000/svg"
   xmlns:sodipodi="http://sodipodi.sourceforge.net/DTD/sodipodi-0.dtd"
   xmlns:inkscape="http://www.inkscape.org/namespaces/inkscape"
   width="64"
   height="64"
   viewBox="0 0 16.933333 16.933334"
   version="1.1"
   id="svg8"
   inkscape:version="1.0.1 (3bc2e813f5, 2020-09-07)"
   sodipodi:docname="rename_new.svg">
  <defs
     id="defs2" />
  <sodipodi:namedview
     id="base"
     pagecolor="#ffffff"
     bordercolor="#666666"
     borderopacity="1.0"
     inkscape:pageopacity="0.0"
     inkscape:pageshadow="2"
     inkscape:zoom="3.959798"
     inkscape:cx="22.400086"
     inkscape:cy="19.144574"
     inkscape:document-units="px"
     inkscape:current-layer="layer1"
     inkscape:document-rotation="0"
     showgrid="false"
     units="px"
     inkscape:window-width="1920"
     inkscape:window-height="1009"
     inkscape:window-x="-8"
     inkscape:window-y="-8"
     inkscape:window-maximized="1" />
  <metadata
     id="metadata5">
    <rdf:RDF>
      <cc:Work
         rdf:about="">
        <dc:format>image/svg+xml</dc:format>
        <dc:type
           rdf:resource="http://purl.org/dc/dcmitype/StillImage" />
        <dc:title></dc:title>
      </cc:Work>
    </rdf:RDF>
  </metadata>
  <g
     inkscape:label="レイヤー 1"
     inkscape:groupmode="layer"
     id="layer1">
    <path
       style="opacity:0.997;fill:#68bccb;fill-opacity:1;stroke-width:0.0362364"
       d="M 0.75333702,8.4891216 C 0.74142733,7.558519 0.44077939,6.2550037 1.1848533,5.7685577 2.1166667,5.1593751 6.0214973,5.3863485 8.4534357,5.3885149 c 2.4319383,0.00217 6.6617403,-0.4281463 7.3024573,0.3948611 0.696928,0.6222243 0.389798,1.7152084 0.365442,2.6536351 -0.02436,0.9384267 0.328987,2.2666799 -0.554221,2.9013159 -0.515712,0.501001 -4.729995,0.210712 -7.0963691,0.200227 C 6.0681905,11.527909 1.8421407,11.649506 1.2679626,11.271428 0.71778893,10.909156 0.7652467,9.4197242 0.75333702,8.4891216 Z"
       id="path845"
       sodipodi:nodetypes="sssczcsss" />
    <path
       id="rect833"
       style="opacity:0.997;fill:#000000;fill-opacity:1;stroke-width:1.10311"
       d="M 8 19.5 C 4.676 19.5 2 21.730001 2 24.5 L 2 39.5 C 2 42.270001 4.676 44.5 8 44.5 L 56 44.5 C 59.324 44.5 62 42.270001 62 39.5 L 62 24.5 C 62 21.730001 59.324 19.5 56 19.5 L 8 19.5 z M 8 21.5 L 56 21.5 C 58.215997 21.5 60 23.284 60 25.5 L 60 38.5 C 60 40.715997 58.215997 42.5 56 42.5 L 8 42.5 C 5.7839999 42.5 4 40.715997 4 38.5 L 4 25.5 C 4 23.284 5.7839999 21.5 8 21.5 z "
       transform="scale(0.26458334)" />
  </g>
</svg>
