<?xml version="1.0" encoding="UTF-8" standalone="no"?>
<svg
   xmlns:dc="http://purl.org/dc/elements/1.1/"
   xmlns:cc="http://creativecommons.org/ns#"
   xmlns:rdf="http://www.w3.org/1999/02/22-rdf-syntax-ns#"
   xmlns:svg="http://www.w3.org/2000/svg"
   xmlns="http://www.w3.org/2000/svg"
   xmlns:sodipodi="http://sodipodi.sourceforge.net/DTD/sodipodi-0.dtd"
   xmlns:inkscape="http://www.inkscape.org/namespaces/inkscape"
   width="256"
   height="256"
   viewBox="0 0 67.73333 67.733335"
   version="1.1"
   id="svg8"
   inkscape:version="1.0.1 (3bc2e813f5, 2020-09-07)"
   sodipodi:docname="x.svg">
  <defs
     id="defs2" />
  <sodipodi:namedview
     id="base"
     pagecolor="#ffffff"
     bordercolor="#666666"
     borderopacity="1.0"
     inkscape:pageopacity="0.0"
     inkscape:pageshadow="2"
     inkscape:zoom="1.979899"
     inkscape:cx="111.71573"
     inkscape:cy="152.286"
     inkscape:document-units="px"
     inkscape:current-layer="layer1"
     inkscape:document-rotation="0"
     showgrid="false"
     units="px"
     inkscape:window-width="1920"
     inkscape:window-height="1009"
     inkscape:window-x="-8"
     inkscape:window-y="-8"
     inkscape:window-maximized="1" />
  <metadata
     id="metadata5">
    <rdf:RDF>
      <cc:Work
         rdf:about="">
        <dc:format>image/svg+xml</dc:format>
        <dc:type
           rdf:resource="http://purl.org/dc/dcmitype/StillImage" />
        <dc:title></dc:title>
      </cc:Work>
    </rdf:RDF>
  </metadata>
  <g
     inkscape:label="レイヤー 1"
     inkscape:groupmode="layer"
     id="layer1">
    <path
       id="path862"
       style="opacity:0.997;fill:#000000;fill-opacity:0.994186;stroke-width:0.266435"
       d="m 6.9680504,2.1559085 c -1.2312748,0 -2.4629809,0.4697333 -3.4023766,1.4092162 -1.8786208,1.8788491 -1.8783061,4.9245541 5.17e-4,6.8032023 L 27.063464,33.866118 3.5656738,57.364941 c -1.8786218,1.878851 -1.8783071,4.924555 5.17e-4,6.803202 1.878707,1.878478 4.9232396,1.879627 6.8032022,0 L 33.866666,40.669836 57.363939,64.168143 c 1.879962,1.879627 4.924496,1.878478 6.803202,0 1.878825,-1.878647 1.87914,-4.924351 5.19e-4,-6.803202 L 40.669868,33.866118 64.167141,10.368327 c 1.878825,-1.8786482 1.87914,-4.9243532 5.19e-4,-6.8032023 -1.878791,-1.8789659 -4.925447,-1.8789659 -6.804237,0 L 33.866666,27.062916 10.36991,3.5651247 C 9.4305142,2.6256418 8.1993249,2.1559085 6.9680504,2.1559085 Z" />
  </g>
</svg>
